<?xml version="1.0" encoding="UTF-8"?>
<svg xmlns="http://www.w3.org/2000/svg" xmlns:xlink="http://www.w3.org/1999/xlink" width="24px" height="24px" viewBox="0 0 24 24" version="1.1">
<g id="surface1">
<path style=" stroke:none;fill-rule:nonzero;fill:rgb(0%,59.607846%,31.764707%);fill-opacity:1;" d="M 15.292969 -0.046875 C 15.519531 -0.046875 15.742188 -0.0429688 15.96875 -0.0429688 C 16.789062 -0.0429688 17.609375 -0.0351562 18.429688 -0.0273438 C 20.265625 -0.0195312 22.105469 -0.0117188 24 0 C 24 4.238281 24 8.476562 24 12.84375 C 19.125 12.867188 19.125 12.867188 17.589844 12.871094 C 17.132812 12.875 17.132812 12.875 16.675781 12.878906 C 16.472656 12.878906 16.269531 12.878906 16.066406 12.878906 C 15.761719 12.878906 15.453125 12.882812 15.144531 12.886719 C 15.054688 12.886719 14.964844 12.886719 14.875 12.886719 C 14.3125 12.894531 13.867188 12.980469 13.40625 13.3125 C 13.082031 13.71875 12.925781 14.046875 12.921875 14.5625 C 12.921875 14.6875 12.921875 14.6875 12.917969 14.816406 C 12.917969 14.90625 12.917969 14.996094 12.917969 15.09375 C 12.917969 15.1875 12.917969 15.285156 12.914062 15.386719 C 12.914062 15.703125 12.910156 16.019531 12.90625 16.335938 C 12.90625 16.53125 12.90625 16.726562 12.902344 16.921875 C 12.894531 17.648438 12.890625 18.371094 12.882812 19.09375 C 12.871094 20.714844 12.859375 22.332031 12.84375 24 C 8.605469 24 4.367188 24 0 24 C -0.00390625 22.144531 -0.0117188 20.292969 -0.0195312 18.382812 C -0.0195312 17.796875 -0.0234375 17.214844 -0.0234375 16.617188 C -0.0273438 15.898438 -0.0273438 15.898438 -0.0273438 15.558594 C -0.0273438 15.324219 -0.0273438 15.09375 -0.03125 14.859375 C -0.0390625 13.1875 0.0351562 11.644531 0.53125 10.035156 C 0.558594 9.960938 0.582031 9.882812 0.605469 9.800781 C 1.734375 6.253906 4.214844 3.308594 7.5 1.5625 C 7.808594 1.40625 8.121094 1.261719 8.4375 1.125 C 8.535156 1.082031 8.535156 1.082031 8.636719 1.039062 C 10.796875 0.121094 12.972656 -0.0703125 15.292969 -0.046875 Z M 15.292969 -0.046875 "/>
<path style=" stroke:none;fill-rule:nonzero;fill:rgb(83.529413%,12.941177%,19.607843%);fill-opacity:1;" d="M 14.355469 0.457031 C 14.507812 0.457031 14.507812 0.457031 14.660156 0.457031 C 14.984375 0.457031 15.3125 0.457031 15.640625 0.460938 C 15.867188 0.460938 16.09375 0.460938 16.324219 0.460938 C 16.917969 0.460938 17.515625 0.460938 18.113281 0.460938 C 18.722656 0.464844 19.335938 0.464844 19.945312 0.464844 C 21.140625 0.464844 22.335938 0.46875 23.53125 0.46875 C 23.53125 1.675781 23.53125 2.882812 23.53125 4.125 C 23.097656 4.128906 23.097656 4.128906 22.65625 4.132812 C 21.699219 4.140625 20.742188 4.148438 19.785156 4.15625 C 19.207031 4.160156 18.625 4.167969 18.046875 4.171875 C 17.484375 4.175781 16.925781 4.179688 16.363281 4.1875 C 16.152344 4.1875 15.9375 4.191406 15.726562 4.191406 C 12.289062 4.21875 9.46875 4.847656 6.972656 7.363281 C 4.820312 9.644531 4.164062 12.425781 4.160156 15.484375 C 4.160156 15.71875 4.160156 15.949219 4.15625 16.183594 C 4.152344 16.792969 4.152344 17.398438 4.148438 18.007812 C 4.148438 18.632812 4.144531 19.253906 4.140625 19.875 C 4.132812 21.09375 4.128906 22.3125 4.125 23.53125 C 2.917969 23.53125 1.710938 23.53125 0.46875 23.53125 C 0.464844 22.226562 0.460938 20.917969 0.460938 19.613281 C 0.457031 19.003906 0.457031 18.398438 0.453125 17.792969 C 0.453125 17.203125 0.453125 16.617188 0.449219 16.03125 C 0.449219 15.808594 0.449219 15.585938 0.449219 15.363281 C 0.429688 11.089844 1.59375 7.449219 4.59375 4.3125 C 7.167969 1.769531 10.773438 0.445312 14.355469 0.457031 Z M 14.355469 0.457031 "/>
<path style=" stroke:none;fill-rule:nonzero;fill:rgb(0%,37.64706%,79.607844%);fill-opacity:1;" d="M 14.824219 8.613281 C 14.917969 8.613281 15.015625 8.613281 15.109375 8.613281 C 15.421875 8.613281 15.730469 8.613281 16.042969 8.617188 C 16.257812 8.617188 16.472656 8.617188 16.6875 8.617188 C 17.257812 8.617188 17.824219 8.617188 18.390625 8.617188 C 18.96875 8.621094 19.546875 8.621094 20.125 8.621094 C 21.261719 8.621094 22.394531 8.625 23.53125 8.625 C 23.53125 9.832031 23.53125 11.039062 23.53125 12.28125 C 23.105469 12.285156 23.105469 12.285156 22.675781 12.285156 C 21.738281 12.289062 20.800781 12.296875 19.867188 12.304688 C 19.300781 12.308594 18.730469 12.3125 18.164062 12.3125 C 17.617188 12.316406 17.070312 12.320312 16.523438 12.324219 C 16.3125 12.328125 16.105469 12.328125 15.894531 12.328125 C 15.601562 12.328125 15.308594 12.332031 15.015625 12.335938 C 14.886719 12.335938 14.886719 12.335938 14.757812 12.335938 C 14.085938 12.34375 13.445312 12.453125 12.953125 12.953125 C 12.902344 13.003906 12.851562 13.054688 12.800781 13.105469 C 12.378906 13.707031 12.332031 14.308594 12.335938 15.015625 C 12.332031 15.109375 12.332031 15.203125 12.332031 15.296875 C 12.328125 15.601562 12.328125 15.902344 12.328125 16.207031 C 12.324219 16.417969 12.324219 16.628906 12.320312 16.839844 C 12.316406 17.394531 12.316406 17.949219 12.3125 18.503906 C 12.308594 19.070312 12.304688 19.636719 12.300781 20.203125 C 12.292969 21.3125 12.285156 22.421875 12.28125 23.53125 C 11.074219 23.53125 9.867188 23.53125 8.625 23.53125 C 8.617188 22.296875 8.609375 21.066406 8.605469 19.832031 C 8.605469 19.257812 8.601562 18.6875 8.597656 18.113281 C 8.59375 17.558594 8.589844 17.007812 8.589844 16.453125 C 8.589844 16.242188 8.585938 16.03125 8.585938 15.820312 C 8.566406 13.613281 8.898438 11.871094 10.488281 10.226562 C 11.707031 9.089844 13.1875 8.609375 14.824219 8.613281 Z M 14.824219 8.613281 "/>
<path style=" stroke:none;fill-rule:nonzero;fill:rgb(9.019608%,7.058824%,5.490196%);fill-opacity:1;" d="M 15.292969 -0.046875 C 15.519531 -0.046875 15.742188 -0.0429688 15.96875 -0.0429688 C 16.789062 -0.0429688 17.609375 -0.0351562 18.429688 -0.0273438 C 20.265625 -0.0195312 22.105469 -0.0117188 24 0 C 24 4.238281 24 8.476562 24 12.84375 C 19.125 12.867188 19.125 12.867188 17.589844 12.871094 C 17.132812 12.875 17.132812 12.875 16.675781 12.878906 C 16.472656 12.878906 16.269531 12.878906 16.066406 12.878906 C 15.761719 12.878906 15.453125 12.882812 15.144531 12.886719 C 15.054688 12.886719 14.964844 12.886719 14.875 12.886719 C 14.3125 12.894531 13.867188 12.980469 13.40625 13.3125 C 13.082031 13.71875 12.925781 14.046875 12.921875 14.5625 C 12.921875 14.6875 12.921875 14.6875 12.917969 14.816406 C 12.917969 14.90625 12.917969 14.996094 12.917969 15.09375 C 12.917969 15.1875 12.917969 15.285156 12.914062 15.386719 C 12.914062 15.703125 12.910156 16.019531 12.90625 16.335938 C 12.90625 16.53125 12.90625 16.726562 12.902344 16.921875 C 12.894531 17.648438 12.890625 18.371094 12.882812 19.09375 C 12.871094 20.714844 12.859375 22.332031 12.84375 24 C 8.605469 24 4.367188 24 0 24 C -0.00390625 22.144531 -0.0117188 20.292969 -0.0195312 18.382812 C -0.0195312 17.796875 -0.0234375 17.214844 -0.0234375 16.617188 C -0.0273438 15.898438 -0.0273438 15.898438 -0.0273438 15.558594 C -0.0273438 15.324219 -0.0273438 15.09375 -0.03125 14.859375 C -0.0390625 13.1875 0.0351562 11.644531 0.53125 10.035156 C 0.558594 9.960938 0.582031 9.882812 0.605469 9.800781 C 1.734375 6.253906 4.214844 3.308594 7.5 1.5625 C 7.808594 1.40625 8.121094 1.261719 8.4375 1.125 C 8.535156 1.082031 8.535156 1.082031 8.636719 1.039062 C 10.796875 0.121094 12.972656 -0.0703125 15.292969 -0.046875 Z M 10.898438 0.855469 C 10.820312 0.875 10.742188 0.894531 10.664062 0.914062 C 7.058594 1.882812 4.050781 4.238281 2.183594 7.464844 C 1.441406 8.800781 0.90625 10.300781 0.65625 11.8125 C 0.640625 11.90625 0.625 12 0.609375 12.097656 C 0.433594 13.296875 0.445312 14.484375 0.449219 15.695312 C 0.449219 15.921875 0.449219 16.148438 0.453125 16.375 C 0.453125 16.96875 0.453125 17.558594 0.457031 18.152344 C 0.457031 18.757812 0.457031 19.367188 0.460938 19.972656 C 0.460938 21.160156 0.464844 22.34375 0.46875 23.53125 C 1.675781 23.53125 2.882812 23.53125 4.125 23.53125 C 4.125 23.222656 4.125 22.910156 4.128906 22.59375 C 4.128906 21.5625 4.136719 20.535156 4.140625 19.507812 C 4.144531 18.882812 4.148438 18.261719 4.152344 17.636719 C 4.152344 17.035156 4.15625 16.433594 4.160156 15.832031 C 4.160156 15.601562 4.160156 15.371094 4.160156 15.144531 C 4.164062 12.039062 5.023438 9.488281 7.164062 7.171875 C 9.707031 4.6875 12.625 4.214844 16.042969 4.1875 C 16.257812 4.1875 16.476562 4.183594 16.691406 4.183594 C 17.257812 4.179688 17.824219 4.171875 18.390625 4.167969 C 18.96875 4.164062 19.550781 4.160156 20.128906 4.152344 C 21.261719 4.144531 22.398438 4.132812 23.53125 4.125 C 23.53125 2.917969 23.53125 1.710938 23.53125 0.46875 C 22.226562 0.464844 20.917969 0.460938 19.613281 0.460938 C 19.003906 0.457031 18.398438 0.457031 17.792969 0.453125 C 17.203125 0.453125 16.617188 0.453125 16.03125 0.449219 C 15.808594 0.449219 15.585938 0.449219 15.363281 0.449219 C 13.847656 0.441406 12.375 0.476562 10.898438 0.855469 Z M 11.25 5.0625 C 11.164062 5.09375 11.082031 5.125 10.992188 5.15625 C 9.871094 5.585938 8.847656 6.195312 7.980469 7.027344 C 7.8125 7.191406 7.636719 7.332031 7.453125 7.476562 C 6.199219 8.550781 5.332031 10.246094 4.875 11.8125 C 4.851562 11.890625 4.828125 11.972656 4.800781 12.054688 C 4.507812 13.199219 4.558594 14.355469 4.566406 15.53125 C 4.566406 15.761719 4.566406 15.992188 4.566406 16.222656 C 4.570312 16.828125 4.570312 17.433594 4.574219 18.039062 C 4.578125 18.65625 4.578125 19.277344 4.578125 19.894531 C 4.582031 21.109375 4.589844 22.320312 4.59375 23.53125 C 5.769531 23.53125 6.945312 23.53125 8.15625 23.53125 C 8.15625 23.242188 8.15625 22.957031 8.160156 22.660156 C 8.160156 21.707031 8.167969 20.75 8.171875 19.796875 C 8.175781 19.21875 8.179688 18.636719 8.183594 18.058594 C 8.183594 17.5 8.1875 16.941406 8.191406 16.382812 C 8.191406 16.171875 8.191406 15.957031 8.191406 15.746094 C 8.195312 13.511719 8.527344 11.644531 10.160156 9.992188 C 11.472656 8.757812 12.996094 8.222656 14.78125 8.21875 C 14.878906 8.21875 14.972656 8.21875 15.070312 8.21875 C 15.382812 8.214844 15.695312 8.210938 16.003906 8.210938 C 16.222656 8.210938 16.441406 8.207031 16.65625 8.207031 C 17.226562 8.199219 17.796875 8.195312 18.367188 8.195312 C 18.949219 8.191406 19.527344 8.183594 20.109375 8.179688 C 21.25 8.171875 22.390625 8.164062 23.53125 8.15625 C 23.53125 6.980469 23.53125 5.804688 23.53125 4.59375 C 22.300781 4.589844 21.070312 4.585938 19.839844 4.585938 C 19.269531 4.582031 18.699219 4.582031 18.128906 4.578125 C 17.574219 4.578125 17.023438 4.578125 16.46875 4.574219 C 16.261719 4.574219 16.050781 4.574219 15.839844 4.574219 C 13.507812 4.539062 13.507812 4.539062 11.25 5.0625 Z M 10.066406 10.652344 C 8.699219 12.3125 8.566406 14.066406 8.589844 16.132812 C 8.589844 16.347656 8.589844 16.5625 8.589844 16.777344 C 8.589844 17.335938 8.59375 17.894531 8.597656 18.453125 C 8.601562 19.027344 8.605469 19.597656 8.605469 20.171875 C 8.609375 21.292969 8.617188 22.410156 8.625 23.53125 C 9.832031 23.53125 11.039062 23.53125 12.28125 23.53125 C 12.28125 23.25 12.285156 22.964844 12.285156 22.675781 C 12.289062 21.738281 12.296875 20.800781 12.304688 19.867188 C 12.308594 19.300781 12.3125 18.730469 12.3125 18.164062 C 12.316406 17.617188 12.320312 17.070312 12.324219 16.523438 C 12.328125 16.3125 12.328125 16.105469 12.328125 15.894531 C 12.328125 15.601562 12.332031 15.308594 12.335938 15.015625 C 12.335938 14.929688 12.335938 14.84375 12.335938 14.757812 C 12.34375 14.085938 12.453125 13.445312 12.953125 12.953125 C 13.003906 12.902344 13.054688 12.851562 13.105469 12.800781 C 13.707031 12.378906 14.308594 12.332031 15.015625 12.335938 C 15.109375 12.332031 15.203125 12.332031 15.296875 12.332031 C 15.601562 12.328125 15.902344 12.328125 16.207031 12.328125 C 16.417969 12.324219 16.628906 12.324219 16.839844 12.320312 C 17.394531 12.316406 17.949219 12.316406 18.503906 12.3125 C 19.070312 12.308594 19.636719 12.304688 20.203125 12.300781 C 21.3125 12.292969 22.421875 12.285156 23.53125 12.28125 C 23.53125 11.074219 23.53125 9.867188 23.53125 8.625 C 22.292969 8.617188 21.054688 8.613281 19.816406 8.609375 C 19.242188 8.609375 18.667969 8.605469 18.09375 8.605469 C 17.535156 8.601562 16.980469 8.597656 16.425781 8.597656 C 16.214844 8.597656 16.003906 8.597656 15.792969 8.59375 C 13.523438 8.578125 11.699219 8.929688 10.066406 10.652344 Z M 10.066406 10.652344 "/>
<path style=" stroke:none;fill-rule:nonzero;fill:rgb(97.254902%,98.431373%,99.215686%);fill-opacity:1;" d="M 16.699219 9.101562 C 17.128906 9.390625 17.472656 9.65625 17.582031 10.1875 C 17.609375 10.714844 17.542969 11.09375 17.195312 11.496094 C 16.855469 11.828125 16.601562 11.925781 16.132812 11.945312 C 15.550781 11.925781 15.265625 11.710938 14.871094 11.296875 C 14.644531 10.8125 14.636719 10.367188 14.71875 9.84375 C 15.101562 9.039062 15.90625 8.828125 16.699219 9.101562 Z M 16.699219 9.101562 "/>
<path style=" stroke:none;fill-rule:nonzero;fill:rgb(99.607843%,97.647059%,98.039216%);fill-opacity:1;" d="M 16.59375 0.84375 C 17.019531 1.0625 17.355469 1.324219 17.53125 1.78125 C 17.609375 2.226562 17.628906 2.640625 17.402344 3.039062 C 16.992188 3.527344 16.679688 3.714844 16.046875 3.796875 C 15.570312 3.785156 15.234375 3.523438 14.90625 3.1875 C 14.613281 2.738281 14.640625 2.203125 14.71875 1.6875 C 15.117188 0.9375 15.78125 0.703125 16.59375 0.84375 Z M 16.59375 0.84375 "/>
<path style=" stroke:none;fill-rule:nonzero;fill:rgb(98.039216%,99.215686%,98.431373%);fill-opacity:1;" d="M 16.59375 4.96875 C 16.914062 5.125 16.914062 5.125 17.15625 5.34375 C 17.230469 5.40625 17.304688 5.472656 17.378906 5.539062 C 17.613281 5.960938 17.601562 6.367188 17.53125 6.84375 C 17.34375 7.21875 17.140625 7.46875 16.78125 7.6875 C 16.367188 7.824219 15.992188 7.859375 15.5625 7.78125 C 15.167969 7.542969 14.867188 7.285156 14.71875 6.84375 C 14.671875 6.347656 14.65625 5.9375 14.875 5.484375 C 15.386719 4.933594 15.863281 4.871094 16.59375 4.96875 Z M 16.59375 4.96875 "/>
</g>
</svg>
